<?xml version="1.0" encoding="UTF-8" standalone="no"?>
<!DOCTYPE svg PUBLIC "-//W3C//DTD SVG 1.1//EN"
 "http://www.w3.org/Graphics/SVG/1.1/DTD/svg11.dtd">
<!-- Generated by graphviz version 13.0.1 (20250615.1724)
 -->
<!-- Title: G Pages: 1 -->
<svg width="1108pt" height="958pt"
 viewBox="0.00 0.00 1108.00 958.00" xmlns="http://www.w3.org/2000/svg" xmlns:xlink="http://www.w3.org/1999/xlink">
<g id="graph0" class="graph" transform="scale(1 1) rotate(0) translate(21.6 935.91)">
<title>G</title>
<polygon fill="#111111" stroke="none" points="-21.6,21.6 -21.6,-935.91 1086.6,-935.91 1086.6,21.6 -21.6,21.6"/>
<!-- browser/chunk&#45;22NTRWUA.js -->
<g id="node1" class="node">
<title>browser/chunk&#45;22NTRWUA.js</title>
<path fill="none" stroke="#c6c5fe" d="M876.58,-580.05C876.58,-580.05 741.92,-580.05 741.92,-580.05 738.58,-580.05 735.25,-576.72 735.25,-573.38 735.25,-573.38 735.25,-566.72 735.25,-566.72 735.25,-563.38 738.58,-560.05 741.92,-560.05 741.92,-560.05 876.58,-560.05 876.58,-560.05 879.92,-560.05 883.25,-563.38 883.25,-566.72 883.25,-566.72 883.25,-573.38 883.25,-573.38 883.25,-576.72 879.92,-580.05 876.58,-580.05"/>
<text xml:space="preserve" text-anchor="middle" x="809.25" y="-566.55" font-family="Arial" font-size="10.00" fill="#c6c5fe">browser/chunk&#45;22NTRWUA.js</text>
</g>
<!-- browser/chunk&#45;4EVZL7WO.js -->
<g id="node2" class="node">
<title>browser/chunk&#45;4EVZL7WO.js</title>
<path fill="none" stroke="#cfffac" d="M1058.33,-428.05C1058.33,-428.05 925.92,-428.05 925.92,-428.05 922.58,-428.05 919.25,-424.72 919.25,-421.38 919.25,-421.38 919.25,-414.72 919.25,-414.72 919.25,-411.38 922.58,-408.05 925.92,-408.05 925.92,-408.05 1058.33,-408.05 1058.33,-408.05 1061.67,-408.05 1065,-411.38 1065,-414.72 1065,-414.72 1065,-421.38 1065,-421.38 1065,-424.72 1061.67,-428.05 1058.33,-428.05"/>
<text xml:space="preserve" text-anchor="middle" x="992.12" y="-414.55" font-family="Arial" font-size="10.00" fill="#cfffac">browser/chunk&#45;4EVZL7WO.js</text>
</g>
<!-- browser/chunk&#45;22NTRWUA.js&#45;&gt;browser/chunk&#45;4EVZL7WO.js -->
<g id="edge1" class="edge">
<title>browser/chunk&#45;22NTRWUA.js&#45;&gt;browser/chunk&#45;4EVZL7WO.js</title>
<path fill="none" stroke="#757575" d="M822.68,-559.6C853.29,-533.88 932.55,-467.28 970.4,-435.46"/>
<polygon fill="#757575" stroke="#757575" points="972.52,-438.26 977.92,-429.14 968.02,-432.9 972.52,-438.26"/>
</g>
<!-- browser/chunk&#45;2F72POH7.js -->
<g id="node3" class="node">
<title>browser/chunk&#45;2F72POH7.js</title>
<path fill="none" stroke="#c6c5fe" d="M327.58,-713.05C327.58,-713.05 198.92,-713.05 198.92,-713.05 195.58,-713.05 192.25,-709.72 192.25,-706.38 192.25,-706.38 192.25,-699.72 192.25,-699.72 192.25,-696.38 195.58,-693.05 198.92,-693.05 198.92,-693.05 327.58,-693.05 327.58,-693.05 330.92,-693.05 334.25,-696.38 334.25,-699.72 334.25,-699.72 334.25,-706.38 334.25,-706.38 334.25,-709.72 330.92,-713.05 327.58,-713.05"/>
<text xml:space="preserve" text-anchor="middle" x="263.25" y="-699.55" font-family="Arial" font-size="10.00" fill="#c6c5fe">browser/chunk&#45;2F72POH7.js</text>
</g>
<!-- browser/chunk&#45;2F72POH7.js&#45;&gt;browser/chunk&#45;22NTRWUA.js -->
<g id="edge2" class="edge">
<title>browser/chunk&#45;2F72POH7.js&#45;&gt;browser/chunk&#45;22NTRWUA.js</title>
<path fill="none" stroke="#757575" d="M279.73,-692.7C300.2,-679.57 337.82,-657.26 373.25,-646.05 512.58,-601.96 556.4,-633.88 699.25,-603.05 722.24,-598.09 747.41,-590.61 767.76,-584.03"/>
<polygon fill="#757575" stroke="#757575" points="768.68,-587.41 777.08,-580.96 766.49,-580.76 768.68,-587.41"/>
</g>
<!-- browser/chunk&#45;2F72POH7.js&#45;&gt;browser/chunk&#45;4EVZL7WO.js -->
<g id="edge3" class="edge">
<title>browser/chunk&#45;2F72POH7.js&#45;&gt;browser/chunk&#45;4EVZL7WO.js</title>
<path fill="none" stroke="#757575" d="M268.78,-713.19C281.1,-739.35 318.03,-808.97 373.25,-836.05 577.3,-936.11 718.47,-955.56 883.25,-799.05 936.97,-748.02 976.71,-512.8 987.92,-439.75"/>
<polygon fill="#757575" stroke="#757575" points="991.37,-440.33 989.4,-429.92 984.45,-439.29 991.37,-440.33"/>
</g>
<!-- browser/chunk&#45;4JWH76IP.js -->
<g id="node4" class="node">
<title>browser/chunk&#45;4JWH76IP.js</title>
<path fill="none" stroke="#c6c5fe" d="M689.96,-751.05C689.96,-751.05 563.54,-751.05 563.54,-751.05 560.21,-751.05 556.88,-747.72 556.88,-744.38 556.88,-744.38 556.88,-737.72 556.88,-737.72 556.88,-734.38 560.21,-731.05 563.54,-731.05 563.54,-731.05 689.96,-731.05 689.96,-731.05 693.29,-731.05 696.62,-734.38 696.62,-737.72 696.62,-737.72 696.62,-744.38 696.62,-744.38 696.62,-747.72 693.29,-751.05 689.96,-751.05"/>
<text xml:space="preserve" text-anchor="middle" x="626.75" y="-737.55" font-family="Arial" font-size="10.00" fill="#c6c5fe">browser/chunk&#45;4JWH76IP.js</text>
</g>
<!-- browser/chunk&#45;2F72POH7.js&#45;&gt;browser/chunk&#45;4JWH76IP.js -->
<g id="edge4" class="edge">
<title>browser/chunk&#45;2F72POH7.js&#45;&gt;browser/chunk&#45;4JWH76IP.js</title>
<path fill="none" stroke="#757575" d="M334.57,-712.43C347.43,-714.04 360.74,-715.65 373.25,-717.05 430.7,-723.47 495.62,-729.62 545.25,-734.08"/>
<polygon fill="#757575" stroke="#757575" points="544.78,-737.55 555.05,-734.96 545.41,-730.58 544.78,-737.55"/>
</g>
<!-- browser/chunk&#45;GYIH26KF.js -->
<g id="node5" class="node">
<title>browser/chunk&#45;GYIH26KF.js</title>
<path fill="none" stroke="#c6c5fe" d="M509.33,-827.05C509.33,-827.05 382.17,-827.05 382.17,-827.05 378.83,-827.05 375.5,-823.72 375.5,-820.38 375.5,-820.38 375.5,-813.72 375.5,-813.72 375.5,-810.38 378.83,-807.05 382.17,-807.05 382.17,-807.05 509.33,-807.05 509.33,-807.05 512.67,-807.05 516,-810.38 516,-813.72 516,-813.72 516,-820.38 516,-820.38 516,-823.72 512.67,-827.05 509.33,-827.05"/>
<text xml:space="preserve" text-anchor="middle" x="445.75" y="-813.55" font-family="Arial" font-size="10.00" fill="#c6c5fe">browser/chunk&#45;GYIH26KF.js</text>
</g>
<!-- browser/chunk&#45;2F72POH7.js&#45;&gt;browser/chunk&#45;GYIH26KF.js -->
<g id="edge5" class="edge">
<title>browser/chunk&#45;2F72POH7.js&#45;&gt;browser/chunk&#45;GYIH26KF.js</title>
<path fill="none" stroke="#757575" d="M280.59,-713.37C312.05,-733.24 381.29,-776.97 419.01,-800.79"/>
<polygon fill="#757575" stroke="#757575" points="416.72,-803.48 427.04,-805.87 420.45,-797.57 416.72,-803.48"/>
</g>
<!-- browser/chunk&#45;TCLTQ5AW.js -->
<g id="node6" class="node">
<title>browser/chunk&#45;TCLTQ5AW.js</title>
<path fill="none" stroke="#c6c5fe" d="M511.58,-675.05C511.58,-675.05 379.92,-675.05 379.92,-675.05 376.58,-675.05 373.25,-671.72 373.25,-668.38 373.25,-668.38 373.25,-661.72 373.25,-661.72 373.25,-658.38 376.58,-655.05 379.92,-655.05 379.92,-655.05 511.58,-655.05 511.58,-655.05 514.92,-655.05 518.25,-658.38 518.25,-661.72 518.25,-661.72 518.25,-668.38 518.25,-668.38 518.25,-671.72 514.92,-675.05 511.58,-675.05"/>
<text xml:space="preserve" text-anchor="middle" x="445.75" y="-661.55" font-family="Arial" font-size="10.00" fill="#c6c5fe">browser/chunk&#45;TCLTQ5AW.js</text>
</g>
<!-- browser/chunk&#45;2F72POH7.js&#45;&gt;browser/chunk&#45;TCLTQ5AW.js -->
<g id="edge6" class="edge">
<title>browser/chunk&#45;2F72POH7.js&#45;&gt;browser/chunk&#45;TCLTQ5AW.js</title>
<path fill="none" stroke="#757575" d="M314.05,-692.57C335.65,-688.02 361.15,-682.65 383.87,-677.87"/>
<polygon fill="#757575" stroke="#757575" points="384.57,-681.3 393.63,-675.81 383.12,-674.45 384.57,-681.3"/>
</g>
<!-- browser/chunk&#45;4JWH76IP.js&#45;&gt;browser/chunk&#45;22NTRWUA.js -->
<g id="edge7" class="edge">
<title>browser/chunk&#45;4JWH76IP.js&#45;&gt;browser/chunk&#45;22NTRWUA.js</title>
<path fill="none" stroke="#757575" d="M640.39,-730.56C654.86,-718.44 679.17,-697.75 699.25,-679.05 732.3,-648.27 769.14,-610.71 790.41,-588.68"/>
<polygon fill="#757575" stroke="#757575" points="792.81,-591.24 797.22,-581.61 787.76,-586.38 792.81,-591.24"/>
</g>
<!-- browser/chunk&#45;4JWH76IP.js&#45;&gt;browser/chunk&#45;4EVZL7WO.js -->
<g id="edge8" class="edge">
<title>browser/chunk&#45;4JWH76IP.js&#45;&gt;browser/chunk&#45;4EVZL7WO.js</title>
<path fill="none" stroke="#757575" d="M682.2,-751.53C738.49,-759.11 826.02,-761.39 883.25,-717.05 973.1,-647.45 988.2,-496.31 990.67,-439.88"/>
<polygon fill="#757575" stroke="#757575" points="994.16,-440.12 991,-430.01 987.17,-439.89 994.16,-440.12"/>
</g>
<!-- browser/chunk&#45;GYIH26KF.js&#45;&gt;browser/chunk&#45;22NTRWUA.js -->
<g id="edge18" class="edge">
<title>browser/chunk&#45;GYIH26KF.js&#45;&gt;browser/chunk&#45;22NTRWUA.js</title>
<path fill="none" stroke="#757575" d="M516.26,-807.75C580.63,-798.01 670.6,-781.2 699.25,-760.05 758.18,-716.54 790.14,-630.94 802.35,-591.22"/>
<polygon fill="#757575" stroke="#757575" points="805.68,-592.29 805.15,-581.71 798.97,-590.32 805.68,-592.29"/>
</g>
<!-- browser/chunk&#45;GYIH26KF.js&#45;&gt;browser/chunk&#45;4EVZL7WO.js -->
<g id="edge19" class="edge">
<title>browser/chunk&#45;GYIH26KF.js&#45;&gt;browser/chunk&#45;4EVZL7WO.js</title>
<path fill="none" stroke="#757575" d="M511.4,-827.53C605.94,-838.88 781.69,-844.33 883.25,-750.05 975.73,-664.19 989.14,-498.36 990.92,-439.46"/>
<polygon fill="#757575" stroke="#757575" points="994.41,-439.87 991.12,-429.8 987.41,-439.73 994.41,-439.87"/>
</g>
<!-- browser/chunk&#45;GYIH26KF.js&#45;&gt;browser/chunk&#45;4JWH76IP.js -->
<g id="edge20" class="edge">
<title>browser/chunk&#45;GYIH26KF.js&#45;&gt;browser/chunk&#45;4JWH76IP.js</title>
<path fill="none" stroke="#757575" d="M485.59,-806.65C496.47,-803.04 508.1,-798.5 518.25,-793.05 536.11,-783.47 536.39,-774.63 554.25,-765.05 561.15,-761.35 568.73,-758.07 576.29,-755.21"/>
<polygon fill="#757575" stroke="#757575" points="577.22,-758.59 585.48,-751.96 574.88,-752 577.22,-758.59"/>
</g>
<!-- browser/chunk&#45;TCLTQ5AW.js&#45;&gt;browser/chunk&#45;22NTRWUA.js -->
<g id="edge34" class="edge">
<title>browser/chunk&#45;TCLTQ5AW.js&#45;&gt;browser/chunk&#45;22NTRWUA.js</title>
<path fill="none" stroke="#757575" d="M518.62,-667.26C570.24,-666.71 640.74,-661.49 699.25,-641.05 733.12,-629.22 766.92,-604.74 787.7,-587.86"/>
<polygon fill="#757575" stroke="#757575" points="789.94,-590.55 795.38,-581.46 785.46,-585.17 789.94,-590.55"/>
</g>
<!-- browser/chunk&#45;TCLTQ5AW.js&#45;&gt;browser/chunk&#45;4EVZL7WO.js -->
<g id="edge35" class="edge">
<title>browser/chunk&#45;TCLTQ5AW.js&#45;&gt;browser/chunk&#45;4EVZL7WO.js</title>
<path fill="none" stroke="#757575" d="M518.74,-666.57C530.6,-666.77 542.77,-666.94 554.25,-667.05 704.52,-668.45 768.75,-686.37 883.25,-589.05 933.47,-546.36 968.06,-474.3 982.92,-438.92"/>
<polygon fill="#757575" stroke="#757575" points="986.1,-440.4 986.63,-429.82 979.62,-437.76 986.1,-440.4"/>
</g>
<!-- browser/chunk&#45;TCLTQ5AW.js&#45;&gt;browser/chunk&#45;4JWH76IP.js -->
<g id="edge36" class="edge">
<title>browser/chunk&#45;TCLTQ5AW.js&#45;&gt;browser/chunk&#45;4JWH76IP.js</title>
<path fill="none" stroke="#757575" d="M485.59,-675.45C496.47,-679.06 508.1,-683.6 518.25,-689.05 536.11,-698.63 536.39,-707.47 554.25,-717.05 561.15,-720.75 568.73,-724.04 576.29,-726.89"/>
<polygon fill="#757575" stroke="#757575" points="574.88,-730.11 585.48,-730.14 577.22,-723.51 574.88,-730.11"/>
</g>
<!-- browser/chunk&#45;4SS7YAMS.js -->
<g id="node7" class="node">
<title>browser/chunk&#45;4SS7YAMS.js</title>
<path fill="none" stroke="#c6c5fe" d="M692.58,-219.05C692.58,-219.05 560.92,-219.05 560.92,-219.05 557.58,-219.05 554.25,-215.72 554.25,-212.38 554.25,-212.38 554.25,-205.72 554.25,-205.72 554.25,-202.38 557.58,-199.05 560.92,-199.05 560.92,-199.05 692.58,-199.05 692.58,-199.05 695.92,-199.05 699.25,-202.38 699.25,-205.72 699.25,-205.72 699.25,-212.38 699.25,-212.38 699.25,-215.72 695.92,-219.05 692.58,-219.05"/>
<text xml:space="preserve" text-anchor="middle" x="626.75" y="-205.55" font-family="Arial" font-size="10.00" fill="#c6c5fe">browser/chunk&#45;4SS7YAMS.js</text>
</g>
<!-- browser/chunk&#45;4SS7YAMS.js&#45;&gt;browser/chunk&#45;4EVZL7WO.js -->
<g id="edge9" class="edge">
<title>browser/chunk&#45;4SS7YAMS.js&#45;&gt;browser/chunk&#45;4EVZL7WO.js</title>
<path fill="none" stroke="#757575" d="M699.48,-204.26C754.05,-204.06 828.78,-211.53 883.25,-247.05 939.23,-283.55 971.61,-360.35 984.53,-397.31"/>
<polygon fill="#757575" stroke="#757575" points="981.07,-398 987.57,-406.37 987.71,-395.78 981.07,-398"/>
</g>
<!-- browser/chunk&#45;J53SF35Y.js -->
<g id="node8" class="node">
<title>browser/chunk&#45;J53SF35Y.js</title>
<path fill="none" stroke="#c6c5fe" d="M871.33,-276.05C871.33,-276.05 747.17,-276.05 747.17,-276.05 743.83,-276.05 740.5,-272.72 740.5,-269.38 740.5,-269.38 740.5,-262.72 740.5,-262.72 740.5,-259.38 743.83,-256.05 747.17,-256.05 747.17,-256.05 871.33,-256.05 871.33,-256.05 874.67,-256.05 878,-259.38 878,-262.72 878,-262.72 878,-269.38 878,-269.38 878,-272.72 874.67,-276.05 871.33,-276.05"/>
<text xml:space="preserve" text-anchor="middle" x="809.25" y="-262.55" font-family="Arial" font-size="10.00" fill="#c6c5fe">browser/chunk&#45;J53SF35Y.js</text>
</g>
<!-- browser/chunk&#45;4SS7YAMS.js&#45;&gt;browser/chunk&#45;J53SF35Y.js -->
<g id="edge10" class="edge">
<title>browser/chunk&#45;4SS7YAMS.js&#45;&gt;browser/chunk&#45;J53SF35Y.js</title>
<path fill="none" stroke="#757575" d="M660.86,-219.51C689.9,-228.68 732.35,-242.08 764.25,-252.15"/>
<polygon fill="#757575" stroke="#757575" points="763.02,-255.44 773.6,-255.11 765.12,-248.76 763.02,-255.44"/>
</g>
<!-- browser/chunk&#45;J53SF35Y.js&#45;&gt;browser/chunk&#45;4EVZL7WO.js -->
<g id="edge21" class="edge">
<title>browser/chunk&#45;J53SF35Y.js&#45;&gt;browser/chunk&#45;4EVZL7WO.js</title>
<path fill="none" stroke="#757575" d="M830.98,-276.4C846.11,-284.39 866.77,-296.22 883.25,-309.05 919.26,-337.08 955.4,-376.43 975.36,-399.39"/>
<polygon fill="#757575" stroke="#757575" points="972.49,-401.41 981.66,-406.72 977.8,-396.85 972.49,-401.41"/>
</g>
<!-- browser/chunk&#45;AT7XKFKJ.js -->
<g id="node9" class="node">
<title>browser/chunk&#45;AT7XKFKJ.js</title>
<path fill="none" stroke="#c6c5fe" d="M691.08,-428.05C691.08,-428.05 562.42,-428.05 562.42,-428.05 559.08,-428.05 555.75,-424.72 555.75,-421.38 555.75,-421.38 555.75,-414.72 555.75,-414.72 555.75,-411.38 559.08,-408.05 562.42,-408.05 562.42,-408.05 691.08,-408.05 691.08,-408.05 694.42,-408.05 697.75,-411.38 697.75,-414.72 697.75,-414.72 697.75,-421.38 697.75,-421.38 697.75,-424.72 694.42,-428.05 691.08,-428.05"/>
<text xml:space="preserve" text-anchor="middle" x="626.75" y="-414.55" font-family="Arial" font-size="10.00" fill="#c6c5fe">browser/chunk&#45;AT7XKFKJ.js</text>
</g>
<!-- browser/chunk&#45;AT7XKFKJ.js&#45;&gt;browser/chunk&#45;22NTRWUA.js -->
<g id="edge11" class="edge">
<title>browser/chunk&#45;AT7XKFKJ.js&#45;&gt;browser/chunk&#45;22NTRWUA.js</title>
<path fill="none" stroke="#757575" d="M640.16,-428.5C670.7,-454.22 749.8,-520.83 787.57,-552.64"/>
<polygon fill="#757575" stroke="#757575" points="785.17,-555.19 795.07,-558.96 789.68,-549.84 785.17,-555.19"/>
</g>
<!-- browser/chunk&#45;AT7XKFKJ.js&#45;&gt;browser/chunk&#45;4EVZL7WO.js -->
<g id="edge12" class="edge">
<title>browser/chunk&#45;AT7XKFKJ.js&#45;&gt;browser/chunk&#45;4EVZL7WO.js</title>
<path fill="none" stroke="#757575" d="M698.24,-418.05C758.21,-418.05 844.44,-418.05 907.81,-418.05"/>
<polygon fill="#757575" stroke="#757575" points="907.45,-421.55 917.45,-418.05 907.45,-414.55 907.45,-421.55"/>
</g>
<!-- browser/chunk&#45;AT7XKFKJ.js&#45;&gt;browser/chunk&#45;J53SF35Y.js -->
<g id="edge13" class="edge">
<title>browser/chunk&#45;AT7XKFKJ.js&#45;&gt;browser/chunk&#45;J53SF35Y.js</title>
<path fill="none" stroke="#757575" d="M648.02,-407.6C662.82,-399.56 683.04,-387.72 699.25,-375.05 735.2,-346.95 771.62,-307.93 791.93,-285"/>
<polygon fill="#757575" stroke="#757575" points="794.41,-287.48 798.37,-277.65 789.15,-282.86 794.41,-287.48"/>
</g>
<!-- browser/chunk&#45;E5OLRX4L.js -->
<g id="node10" class="node">
<title>browser/chunk&#45;E5OLRX4L.js</title>
<path fill="none" stroke="#c6c5fe" d="M510.46,-105.05C510.46,-105.05 381.04,-105.05 381.04,-105.05 377.71,-105.05 374.38,-101.72 374.38,-98.38 374.38,-98.38 374.38,-91.72 374.38,-91.72 374.38,-88.38 377.71,-85.05 381.04,-85.05 381.04,-85.05 510.46,-85.05 510.46,-85.05 513.79,-85.05 517.12,-88.38 517.12,-91.72 517.12,-91.72 517.12,-98.38 517.12,-98.38 517.12,-101.72 513.79,-105.05 510.46,-105.05"/>
<text xml:space="preserve" text-anchor="middle" x="445.75" y="-91.55" font-family="Arial" font-size="10.00" fill="#c6c5fe">browser/chunk&#45;E5OLRX4L.js</text>
</g>
<!-- browser/chunk&#45;E5OLRX4L.js&#45;&gt;browser/chunk&#45;22NTRWUA.js -->
<g id="edge14" class="edge">
<title>browser/chunk&#45;E5OLRX4L.js&#45;&gt;browser/chunk&#45;22NTRWUA.js</title>
<path fill="none" stroke="#757575" d="M487.32,-105.53C497.76,-109.06 508.73,-113.54 518.25,-119.05 536.77,-129.78 535.41,-140.89 554.25,-151.05 612.98,-182.73 651.67,-143.26 699.25,-190.05 712.63,-203.21 782.76,-471.45 802.86,-549.14"/>
<polygon fill="#757575" stroke="#757575" points="799.37,-549.63 805.26,-558.44 806.15,-547.88 799.37,-549.63"/>
</g>
<!-- browser/chunk&#45;E5OLRX4L.js&#45;&gt;browser/chunk&#45;4EVZL7WO.js -->
<g id="edge15" class="edge">
<title>browser/chunk&#45;E5OLRX4L.js&#45;&gt;browser/chunk&#45;4EVZL7WO.js</title>
<path fill="none" stroke="#757575" d="M517.3,-91.44C613.4,-90.56 784.77,-104.06 883.25,-201.05 941.78,-258.7 973.78,-354.65 985.67,-396.94"/>
<polygon fill="#757575" stroke="#757575" points="982.29,-397.82 988.27,-406.56 989.04,-395.99 982.29,-397.82"/>
</g>
<!-- browser/chunk&#45;E5OLRX4L.js&#45;&gt;browser/chunk&#45;4SS7YAMS.js -->
<g id="edge16" class="edge">
<title>browser/chunk&#45;E5OLRX4L.js&#45;&gt;browser/chunk&#45;4SS7YAMS.js</title>
<path fill="none" stroke="#757575" d="M494.38,-105.47C502.94,-108.83 511.33,-113.25 518.25,-119.05 543.86,-140.52 528.64,-163.59 554.25,-185.05 558.36,-188.5 562.99,-191.45 567.86,-193.99"/>
<polygon fill="#757575" stroke="#757575" points="566.18,-197.08 576.74,-198.01 569.07,-190.7 566.18,-197.08"/>
</g>
<!-- browser/chunk&#45;E5OLRX4L.js&#45;&gt;browser/chunk&#45;J53SF35Y.js -->
<g id="edge17" class="edge">
<title>browser/chunk&#45;E5OLRX4L.js&#45;&gt;browser/chunk&#45;J53SF35Y.js</title>
<path fill="none" stroke="#757575" d="M504.61,-105.5C568.38,-117.68 666.31,-138.49 699.25,-157.05 739.83,-179.91 775.6,-222.06 794.36,-246.71"/>
<polygon fill="#757575" stroke="#757575" points="791.44,-248.65 800.21,-254.59 797.06,-244.47 791.44,-248.65"/>
</g>
<!-- browser/chunk&#45;PAPZU6IO.js -->
<g id="node11" class="node">
<title>browser/chunk&#45;PAPZU6IO.js</title>
<path fill="none" stroke="#c6c5fe" d="M327.58,-257.05C327.58,-257.05 198.92,-257.05 198.92,-257.05 195.58,-257.05 192.25,-253.72 192.25,-250.38 192.25,-250.38 192.25,-243.72 192.25,-243.72 192.25,-240.38 195.58,-237.05 198.92,-237.05 198.92,-237.05 327.58,-237.05 327.58,-237.05 330.92,-237.05 334.25,-240.38 334.25,-243.72 334.25,-243.72 334.25,-250.38 334.25,-250.38 334.25,-253.72 330.92,-257.05 327.58,-257.05"/>
<text xml:space="preserve" text-anchor="middle" x="263.25" y="-243.55" font-family="Arial" font-size="10.00" fill="#c6c5fe">browser/chunk&#45;PAPZU6IO.js</text>
</g>
<!-- browser/chunk&#45;PAPZU6IO.js&#45;&gt;browser/chunk&#45;22NTRWUA.js -->
<g id="edge22" class="edge">
<title>browser/chunk&#45;PAPZU6IO.js&#45;&gt;browser/chunk&#45;22NTRWUA.js</title>
<path fill="none" stroke="#757575" d="M279.02,-257.47C321.13,-287.01 445.79,-373.33 554.25,-437.05 632.45,-483 728.02,-530.92 776.6,-554.73"/>
<polygon fill="#757575" stroke="#757575" points="774.91,-557.79 785.43,-559.04 777.98,-551.5 774.91,-557.79"/>
</g>
<!-- browser/chunk&#45;PAPZU6IO.js&#45;&gt;browser/chunk&#45;4EVZL7WO.js -->
<g id="edge23" class="edge">
<title>browser/chunk&#45;PAPZU6IO.js&#45;&gt;browser/chunk&#45;4EVZL7WO.js</title>
<path fill="none" stroke="#757575" d="M308.63,-257.49C434.99,-287.22 796.59,-372.28 935.68,-405.01"/>
<polygon fill="#757575" stroke="#757575" points="934.86,-408.41 945.4,-407.29 936.46,-401.6 934.86,-408.41"/>
</g>
<!-- browser/chunk&#45;PAPZU6IO.js&#45;&gt;browser/chunk&#45;4SS7YAMS.js -->
<g id="edge24" class="edge">
<title>browser/chunk&#45;PAPZU6IO.js&#45;&gt;browser/chunk&#45;4SS7YAMS.js</title>
<path fill="none" stroke="#757575" d="M280.04,-236.72C300.53,-223.99 337.87,-203.06 373.25,-195.05 438.14,-180.36 514.68,-187.97 566.35,-196.62"/>
<polygon fill="#757575" stroke="#757575" points="565.68,-200.06 576.14,-198.34 566.89,-193.17 565.68,-200.06"/>
</g>
<!-- browser/chunk&#45;PAPZU6IO.js&#45;&gt;browser/chunk&#45;J53SF35Y.js -->
<g id="edge26" class="edge">
<title>browser/chunk&#45;PAPZU6IO.js&#45;&gt;browser/chunk&#45;J53SF35Y.js</title>
<path fill="none" stroke="#757575" d="M334.53,-249.51C435.96,-253.05 622.83,-259.57 729.02,-263.28"/>
<polygon fill="#757575" stroke="#757575" points="728.67,-266.77 738.79,-263.62 728.92,-259.78 728.67,-266.77"/>
</g>
<!-- browser/chunk&#45;PAPZU6IO.js&#45;&gt;browser/chunk&#45;E5OLRX4L.js -->
<g id="edge25" class="edge">
<title>browser/chunk&#45;PAPZU6IO.js&#45;&gt;browser/chunk&#45;E5OLRX4L.js</title>
<path fill="none" stroke="#757575" d="M276.66,-236.6C307.2,-210.88 386.3,-144.28 424.07,-112.46"/>
<polygon fill="#757575" stroke="#757575" points="426.18,-115.26 431.57,-106.15 421.67,-109.91 426.18,-115.26"/>
</g>
<!-- browser/chunk&#45;QCPGBD4Z.js -->
<g id="node12" class="node">
<title>browser/chunk&#45;QCPGBD4Z.js</title>
<path fill="none" stroke="#c6c5fe" d="M330.58,-504.05C330.58,-504.05 195.92,-504.05 195.92,-504.05 192.58,-504.05 189.25,-500.72 189.25,-497.38 189.25,-497.38 189.25,-490.72 189.25,-490.72 189.25,-487.38 192.58,-484.05 195.92,-484.05 195.92,-484.05 330.58,-484.05 330.58,-484.05 333.92,-484.05 337.25,-487.38 337.25,-490.72 337.25,-490.72 337.25,-497.38 337.25,-497.38 337.25,-500.72 333.92,-504.05 330.58,-504.05"/>
<text xml:space="preserve" text-anchor="middle" x="263.25" y="-490.55" font-family="Arial" font-size="10.00" fill="#c6c5fe">browser/chunk&#45;QCPGBD4Z.js</text>
</g>
<!-- browser/chunk&#45;QCPGBD4Z.js&#45;&gt;browser/chunk&#45;22NTRWUA.js -->
<g id="edge27" class="edge">
<title>browser/chunk&#45;QCPGBD4Z.js&#45;&gt;browser/chunk&#45;22NTRWUA.js</title>
<path fill="none" stroke="#757575" d="M293,-504.44C314.76,-511.89 345.52,-521.54 373.25,-527.05 493.58,-550.97 635.41,-561.83 723.59,-566.58"/>
<polygon fill="#757575" stroke="#757575" points="723.19,-570.07 733.36,-567.09 723.56,-563.08 723.19,-570.07"/>
</g>
<!-- browser/chunk&#45;QCPGBD4Z.js&#45;&gt;browser/chunk&#45;4EVZL7WO.js -->
<g id="edge28" class="edge">
<title>browser/chunk&#45;QCPGBD4Z.js&#45;&gt;browser/chunk&#45;4EVZL7WO.js</title>
<path fill="none" stroke="#757575" d="M337.71,-487.49C453.72,-476.94 686.41,-455.07 883.25,-432.05 891.18,-431.12 899.43,-430.12 907.69,-429.09"/>
<polygon fill="#757575" stroke="#757575" points="907.93,-432.59 917.41,-427.87 907.05,-425.64 907.93,-432.59"/>
</g>
<!-- browser/chunk&#45;QCPGBD4Z.js&#45;&gt;browser/chunk&#45;4JWH76IP.js -->
<g id="edge29" class="edge">
<title>browser/chunk&#45;QCPGBD4Z.js&#45;&gt;browser/chunk&#45;4JWH76IP.js</title>
<path fill="none" stroke="#757575" d="M266.93,-504.26C275.9,-536.36 308.09,-635.94 373.25,-684.05 374.25,-684.79 493.49,-711.51 567.74,-728.1"/>
<polygon fill="#757575" stroke="#757575" points="566.79,-731.48 577.32,-730.24 568.32,-724.65 566.79,-731.48"/>
</g>
<!-- browser/chunk&#45;QCPGBD4Z.js&#45;&gt;browser/chunk&#45;TCLTQ5AW.js -->
<g id="edge33" class="edge">
<title>browser/chunk&#45;QCPGBD4Z.js&#45;&gt;browser/chunk&#45;TCLTQ5AW.js</title>
<path fill="none" stroke="#757575" d="M275.27,-504.49C305.17,-532.82 388.12,-611.4 425.75,-647.05"/>
<polygon fill="#757575" stroke="#757575" points="423.11,-649.37 432.78,-653.71 427.92,-644.29 423.11,-649.37"/>
</g>
<!-- browser/chunk&#45;QCPGBD4Z.js&#45;&gt;browser/chunk&#45;4SS7YAMS.js -->
<g id="edge30" class="edge">
<title>browser/chunk&#45;QCPGBD4Z.js&#45;&gt;browser/chunk&#45;4SS7YAMS.js</title>
<path fill="none" stroke="#757575" d="M269.86,-483.59C284.18,-457.69 324.37,-389.62 373.25,-347.05 440.08,-288.86 535.52,-245.05 587.84,-223.64"/>
<polygon fill="#757575" stroke="#757575" points="588.96,-226.96 596.92,-219.97 586.34,-220.47 588.96,-226.96"/>
</g>
<!-- browser/chunk&#45;QCPGBD4Z.js&#45;&gt;browser/chunk&#45;J53SF35Y.js -->
<g id="edge32" class="edge">
<title>browser/chunk&#45;QCPGBD4Z.js&#45;&gt;browser/chunk&#45;J53SF35Y.js</title>
<path fill="none" stroke="#757575" d="M283.69,-483.58C305.3,-472.1 341.36,-453.4 373.25,-439.05 516.65,-374.51 691.77,-308.71 768.75,-280.42"/>
<polygon fill="#757575" stroke="#757575" points="769.78,-283.77 777.96,-277.04 767.37,-277.2 769.78,-283.77"/>
</g>
<!-- browser/chunk&#45;QCPGBD4Z.js&#45;&gt;browser/chunk&#45;AT7XKFKJ.js -->
<g id="edge31" class="edge">
<title>browser/chunk&#45;QCPGBD4Z.js&#45;&gt;browser/chunk&#45;AT7XKFKJ.js</title>
<path fill="none" stroke="#757575" d="M314.14,-483.56C379.68,-469.78 494.71,-445.6 565.17,-430.79"/>
<polygon fill="#757575" stroke="#757575" points="565.54,-434.29 574.61,-428.8 564.1,-427.44 565.54,-434.29"/>
</g>
<!-- browser/chunk&#45;TR37XM24.js -->
<g id="node13" class="node">
<title>browser/chunk&#45;TR37XM24.js</title>
<path fill="none" stroke="#c6c5fe" d="M691.46,-67.05C691.46,-67.05 562.04,-67.05 562.04,-67.05 558.71,-67.05 555.38,-63.72 555.38,-60.38 555.38,-60.38 555.38,-53.72 555.38,-53.72 555.38,-50.38 558.71,-47.05 562.04,-47.05 562.04,-47.05 691.46,-47.05 691.46,-47.05 694.79,-47.05 698.12,-50.38 698.12,-53.72 698.12,-53.72 698.12,-60.38 698.12,-60.38 698.12,-63.72 694.79,-67.05 691.46,-67.05"/>
<text xml:space="preserve" text-anchor="middle" x="626.75" y="-53.55" font-family="Arial" font-size="10.00" fill="#c6c5fe">browser/chunk&#45;TR37XM24.js</text>
</g>
<!-- browser/chunk&#45;TR37XM24.js&#45;&gt;browser/chunk&#45;4EVZL7WO.js -->
<g id="edge37" class="edge">
<title>browser/chunk&#45;TR37XM24.js&#45;&gt;browser/chunk&#45;4EVZL7WO.js</title>
<path fill="none" stroke="#757575" d="M679.68,-46.57C736.11,-38.34 825.88,-34.91 883.25,-81.05 983.36,-161.56 991.9,-335.42 991.67,-396.39"/>
<polygon fill="#757575" stroke="#757575" points="988.17,-396.05 991.54,-406.1 995.17,-396.15 988.17,-396.05"/>
</g>
<!-- browser/chunk&#45;TR37XM24.js&#45;&gt;browser/chunk&#45;J53SF35Y.js -->
<g id="edge38" class="edge">
<title>browser/chunk&#45;TR37XM24.js&#45;&gt;browser/chunk&#45;J53SF35Y.js</title>
<path fill="none" stroke="#757575" d="M641.45,-67.44C656.45,-79.16 680.83,-99.16 699.25,-119.05 738.29,-161.19 776.55,-217.13 795.66,-246.36"/>
<polygon fill="#757575" stroke="#757575" points="792.61,-248.08 800.98,-254.57 798.49,-244.27 792.61,-248.08"/>
</g>
<!-- browser/main&#45;SDTLKCHQ.js -->
<g id="node14" class="node">
<title>browser/main&#45;SDTLKCHQ.js</title>
<path fill="none" stroke="#c6c5fe" d="M141.33,-371.05C141.33,-371.05 11.92,-371.05 11.92,-371.05 8.58,-371.05 5.25,-367.72 5.25,-364.38 5.25,-364.38 5.25,-357.72 5.25,-357.72 5.25,-354.38 8.58,-351.05 11.92,-351.05 11.92,-351.05 141.33,-351.05 141.33,-351.05 144.67,-351.05 148,-354.38 148,-357.72 148,-357.72 148,-364.38 148,-364.38 148,-367.72 144.67,-371.05 141.33,-371.05"/>
<text xml:space="preserve" text-anchor="middle" x="76.62" y="-357.55" font-family="Arial" font-size="10.00" fill="#c6c5fe">browser/main&#45;SDTLKCHQ.js</text>
</g>
<!-- browser/main&#45;SDTLKCHQ.js&#45;&gt;browser/chunk&#45;22NTRWUA.js -->
<g id="edge39" class="edge">
<title>browser/main&#45;SDTLKCHQ.js&#45;&gt;browser/chunk&#45;22NTRWUA.js</title>
<path fill="none" stroke="#757575" d="M141.48,-371.46C145.78,-373.81 149.77,-376.64 153.25,-380.05 196.94,-422.96 144.76,-470.97 189.25,-513.05 264.2,-583.96 572.53,-580.74 723.79,-574.57"/>
<polygon fill="#757575" stroke="#757575" points="723.49,-578.09 733.33,-574.17 723.19,-571.09 723.49,-578.09"/>
</g>
<!-- browser/main&#45;SDTLKCHQ.js&#45;&gt;browser/chunk&#45;4EVZL7WO.js -->
<g id="edge41" class="edge">
<title>browser/main&#45;SDTLKCHQ.js&#45;&gt;browser/chunk&#45;4EVZL7WO.js</title>
<path fill="none" stroke="#757575" d="M77.61,-350.61C78.15,-305.29 86.85,-124.33 189.25,-44.05 279.04,26.34 330.65,-19.05 444.75,-19.05 444.75,-19.05 444.75,-19.05 627.75,-19.05 741.62,-19.05 795.01,33.92 883.25,-38.05 940.65,-84.87 977.98,-323.22 988.25,-396.55"/>
<polygon fill="#757575" stroke="#757575" points="984.73,-396.62 989.55,-406.05 991.66,-395.67 984.73,-396.62"/>
</g>
<!-- browser/main&#45;SDTLKCHQ.js&#45;&gt;browser/chunk&#45;2F72POH7.js -->
<g id="edge40" class="edge">
<title>browser/main&#45;SDTLKCHQ.js&#45;&gt;browser/chunk&#45;2F72POH7.js</title>
<path fill="none" stroke="#757575" d="M142.58,-371.48C146.52,-373.83 150.14,-376.66 153.25,-380.05 221.12,-454.03 150.59,-510.4 189.25,-603.05 202.41,-634.59 227.38,-665.52 244.41,-684.44"/>
<polygon fill="#757575" stroke="#757575" points="241.67,-686.63 251.03,-691.6 246.81,-681.88 241.67,-686.63"/>
</g>
<!-- browser/main&#45;SDTLKCHQ.js&#45;&gt;browser/chunk&#45;4JWH76IP.js -->
<g id="edge42" class="edge">
<title>browser/main&#45;SDTLKCHQ.js&#45;&gt;browser/chunk&#45;4JWH76IP.js</title>
<path fill="none" stroke="#757575" d="M143.14,-371.5C146.89,-373.86 150.32,-376.68 153.25,-380.05 203.34,-437.77 134.73,-668.51 189.25,-722.05 237.85,-769.77 433.06,-759.89 545.28,-749.74"/>
<polygon fill="#757575" stroke="#757575" points="545.39,-753.24 555.03,-748.83 544.75,-746.27 545.39,-753.24"/>
</g>
<!-- browser/main&#45;SDTLKCHQ.js&#45;&gt;browser/chunk&#45;GYIH26KF.js -->
<g id="edge46" class="edge">
<title>browser/main&#45;SDTLKCHQ.js&#45;&gt;browser/chunk&#45;GYIH26KF.js</title>
<path fill="none" stroke="#757575" d="M143.21,-371.44C146.95,-373.81 150.35,-376.65 153.25,-380.05 213.01,-450.17 124.33,-727.69 189.25,-793.05 241.5,-845.65 333.78,-840.01 391.97,-829.62"/>
<polygon fill="#757575" stroke="#757575" points="392.48,-833.08 401.64,-827.77 391.17,-826.21 392.48,-833.08"/>
</g>
<!-- browser/main&#45;SDTLKCHQ.js&#45;&gt;browser/chunk&#45;4SS7YAMS.js -->
<g id="edge43" class="edge">
<title>browser/main&#45;SDTLKCHQ.js&#45;&gt;browser/chunk&#45;4SS7YAMS.js</title>
<path fill="none" stroke="#757575" d="M83.11,-350.84C97.15,-325.7 137.02,-260.52 189.25,-228.05 314.59,-150.13 371.7,-165.58 518.25,-183.05 539.03,-185.53 561.6,-190.61 580.68,-195.63"/>
<polygon fill="#757575" stroke="#757575" points="579.73,-199 590.29,-198.24 581.56,-192.24 579.73,-199"/>
</g>
<!-- browser/main&#45;SDTLKCHQ.js&#45;&gt;browser/chunk&#45;J53SF35Y.js -->
<g id="edge47" class="edge">
<title>browser/main&#45;SDTLKCHQ.js&#45;&gt;browser/chunk&#45;J53SF35Y.js</title>
<path fill="none" stroke="#757575" d="M148.34,-351.86C285.2,-334.06 585.39,-295.03 728.85,-276.37"/>
<polygon fill="#757575" stroke="#757575" points="729.19,-279.86 738.66,-275.1 728.29,-272.92 729.19,-279.86"/>
</g>
<!-- browser/main&#45;SDTLKCHQ.js&#45;&gt;browser/chunk&#45;AT7XKFKJ.js -->
<g id="edge44" class="edge">
<title>browser/main&#45;SDTLKCHQ.js&#45;&gt;browser/chunk&#45;AT7XKFKJ.js</title>
<path fill="none" stroke="#757575" d="M148.44,-368.41C250.08,-378.98 436.86,-398.41 544.16,-409.57"/>
<polygon fill="#757575" stroke="#757575" points="543.75,-413.04 554.06,-410.6 544.48,-406.08 543.75,-413.04"/>
</g>
<!-- browser/main&#45;SDTLKCHQ.js&#45;&gt;browser/chunk&#45;E5OLRX4L.js -->
<g id="edge45" class="edge">
<title>browser/main&#45;SDTLKCHQ.js&#45;&gt;browser/chunk&#45;E5OLRX4L.js</title>
<path fill="none" stroke="#757575" d="M78.8,-350.75C83.76,-312.46 106.74,-177.47 189.25,-119.05 241.53,-82.03 315.67,-79.03 370.63,-83.5"/>
<polygon fill="#757575" stroke="#757575" points="370.27,-86.98 380.55,-84.42 370.92,-80.01 370.27,-86.98"/>
</g>
<!-- browser/main&#45;SDTLKCHQ.js&#45;&gt;browser/chunk&#45;PAPZU6IO.js -->
<g id="edge48" class="edge">
<title>browser/main&#45;SDTLKCHQ.js&#45;&gt;browser/chunk&#45;PAPZU6IO.js</title>
<path fill="none" stroke="#757575" d="M94.33,-350.73C126.52,-330.86 197.34,-287.13 235.92,-263.31"/>
<polygon fill="#757575" stroke="#757575" points="237.49,-266.45 244.16,-258.22 233.81,-260.5 237.49,-266.45"/>
</g>
<!-- browser/main&#45;SDTLKCHQ.js&#45;&gt;browser/chunk&#45;QCPGBD4Z.js -->
<g id="edge49" class="edge">
<title>browser/main&#45;SDTLKCHQ.js&#45;&gt;browser/chunk&#45;QCPGBD4Z.js</title>
<path fill="none" stroke="#757575" d="M134.36,-371.55C140.95,-373.85 147.4,-376.65 153.25,-380.05 164.35,-386.51 217.71,-444.72 245.44,-475.36"/>
<polygon fill="#757575" stroke="#757575" points="242.83,-477.7 252.13,-482.78 248.03,-473.01 242.83,-477.7"/>
</g>
<!-- browser/main&#45;SDTLKCHQ.js&#45;&gt;browser/chunk&#45;TR37XM24.js -->
<g id="edge50" class="edge">
<title>browser/main&#45;SDTLKCHQ.js&#45;&gt;browser/chunk&#45;TR37XM24.js</title>
<path fill="none" stroke="#757575" d="M77.98,-350.73C80.05,-308.27 94.14,-146.17 189.25,-78.05 244.05,-38.79 433.12,-43.92 543.63,-50.73"/>
<polygon fill="#757575" stroke="#757575" points="543.34,-54.22 553.54,-51.36 543.79,-47.23 543.34,-54.22"/>
</g>
<!-- browser/polyfills&#45;5CFQRCPP.js -->
<g id="node15" class="node">
<title>browser/polyfills&#45;5CFQRCPP.js</title>
<path fill="none" stroke="#cfffac" d="M146.58,-409.05C146.58,-409.05 6.67,-409.05 6.67,-409.05 3.33,-409.05 0,-405.72 0,-402.38 0,-402.38 0,-395.72 0,-395.72 0,-392.38 3.33,-389.05 6.67,-389.05 6.67,-389.05 146.58,-389.05 146.58,-389.05 149.92,-389.05 153.25,-392.38 153.25,-395.72 153.25,-395.72 153.25,-402.38 153.25,-402.38 153.25,-405.72 149.92,-409.05 146.58,-409.05"/>
<text xml:space="preserve" text-anchor="middle" x="76.62" y="-395.55" font-family="Arial" font-size="10.00" fill="#cfffac">browser/polyfills&#45;5CFQRCPP.js</text>
</g>
</g>
</svg>
